<?xml version="1.0" encoding="UTF-8" standalone="no"?>
<!DOCTYPE svg PUBLIC "-//W3C//DTD SVG 1.1//EN"
 "http://www.w3.org/Graphics/SVG/1.1/DTD/svg11.dtd">
<!-- Generated by graphviz version 2.44.0 (20200408.0750)
 -->
<!-- Title: G Pages: 1 -->
<svg width="353pt" height="1132pt"
 viewBox="0.00 0.00 353.00 1132.00" xmlns="http://www.w3.org/2000/svg" xmlns:xlink="http://www.w3.org/1999/xlink">
<g id="graph0" class="graph" transform="scale(1 1) rotate(0) translate(4 1128)">
<title>G</title>
<polygon fill="white" stroke="transparent" points="-4,4 -4,-1128 349,-1128 349,4 -4,4"/>
<g id="clust1" class="cluster">
<title>cluster_Global</title>
<path fill="none" stroke="gray" d="M20,-8C20,-8 325,-8 325,-8 331,-8 337,-14 337,-20 337,-20 337,-1104 337,-1104 337,-1110 331,-1116 325,-1116 325,-1116 20,-1116 20,-1116 14,-1116 8,-1110 8,-1104 8,-1104 8,-20 8,-20 8,-14 14,-8 20,-8"/>
<text text-anchor="middle" x="172.5" y="-1103.2" font-family="Times,serif" font-size="11.00" fill="gray">Global</text>
</g>
<g id="clust2" class="cluster">
<title>cluster_\OpenResourceManager</title>
<path fill="none" stroke="gray" d="M28,-16C28,-16 317,-16 317,-16 323,-16 329,-22 329,-28 329,-28 329,-1076 329,-1076 329,-1082 323,-1088 317,-1088 317,-1088 28,-1088 28,-1088 22,-1088 16,-1082 16,-1076 16,-1076 16,-28 16,-28 16,-22 22,-16 28,-16"/>
<text text-anchor="middle" x="172.5" y="-1075.2" font-family="Times,serif" font-size="11.00" fill="gray">OpenResourceManager</text>
</g>
<g id="clust3" class="cluster">
<title>cluster_\OpenResourceManager\Client</title>
<path fill="none" stroke="gray" d="M36,-70C36,-70 309,-70 309,-70 315,-70 321,-76 321,-82 321,-82 321,-1048 321,-1048 321,-1054 315,-1060 309,-1060 309,-1060 36,-1060 36,-1060 30,-1060 24,-1054 24,-1048 24,-1048 24,-82 24,-82 24,-76 30,-70 36,-70"/>
<text text-anchor="middle" x="172.5" y="-1047.2" font-family="Times,serif" font-size="11.00" fill="gray">Client</text>
</g>
<!-- \\OpenResourceManager\\Client\\Account -->
<g id="node1" class="node">
<title>\\OpenResourceManager\\Client\\Account</title>
<polygon fill="none" stroke="black" points="269,-1032 205,-1032 205,-996 269,-996 269,-1032"/>
<text text-anchor="middle" x="237" y="-1011.2" font-family="Courier,monospace" font-size="11.00">Account</text>
</g>
<!-- \\OpenResourceManager\\Client\\Client -->
<g id="node11" class="node">
<title>\\OpenResourceManager\\Client\\Client</title>
<polygon fill="none" stroke="black" points="89,-573 32,-573 32,-537 89,-537 89,-573"/>
<text text-anchor="middle" x="60.5" y="-552.2" font-family="Courier,monospace" font-size="11.00">Client</text>
</g>
<!-- \\OpenResourceManager\\Client\\Account&#45;&gt;\\OpenResourceManager\\Client\\Client -->
<g id="edge1" class="edge">
<title>\\OpenResourceManager\\Client\\Account&#45;&gt;\\OpenResourceManager\\Client\\Client</title>
<path fill="none" stroke="black" d="M204.7,-1009.84C189.48,-1006.24 172.11,-999.52 161,-987 106.81,-925.93 74.1,-669.34 64.48,-583.28"/>
<polygon fill="none" stroke="black" points="67.95,-582.76 63.38,-573.2 60.99,-583.52 67.95,-582.76"/>
</g>
<!-- \\OpenResourceManager\\Client\\Room -->
<g id="node2" class="node">
<title>\\OpenResourceManager\\Client\\Room</title>
<polygon fill="none" stroke="black" points="264,-978 210,-978 210,-942 264,-942 264,-978"/>
<text text-anchor="middle" x="237" y="-957.2" font-family="Courier,monospace" font-size="11.00">Room</text>
</g>
<!-- \\OpenResourceManager\\Client\\Room&#45;&gt;\\OpenResourceManager\\Client\\Client -->
<g id="edge2" class="edge">
<title>\\OpenResourceManager\\Client\\Room&#45;&gt;\\OpenResourceManager\\Client\\Client</title>
<path fill="none" stroke="black" d="M209.67,-956.77C193.48,-953.43 173.52,-946.68 161,-933 67.7,-831.09 59.87,-652.18 60.57,-583.21"/>
<polygon fill="none" stroke="black" points="64.07,-583.17 60.75,-573.12 57.08,-583.05 64.07,-583.17"/>
</g>
<!-- \\OpenResourceManager\\Client\\ServiceAccount -->
<g id="node3" class="node">
<title>\\OpenResourceManager\\Client\\ServiceAccount</title>
<polygon fill="none" stroke="black" points="292.5,-924 181.5,-924 181.5,-888 292.5,-888 292.5,-924"/>
<text text-anchor="middle" x="237" y="-903.2" font-family="Courier,monospace" font-size="11.00">ServiceAccount</text>
</g>
<!-- \\OpenResourceManager\\Client\\ServiceAccount&#45;&gt;\\OpenResourceManager\\Client\\Client -->
<g id="edge3" class="edge">
<title>\\OpenResourceManager\\Client\\ServiceAccount&#45;&gt;\\OpenResourceManager\\Client\\Client</title>
<path fill="none" stroke="black" d="M181.12,-893.14C173.66,-889.53 166.63,-884.91 161,-879 80.17,-794.23 64.88,-645.41 62.08,-583.38"/>
<polygon fill="none" stroke="black" points="65.57,-583.05 61.7,-573.18 58.58,-583.31 65.57,-583.05"/>
</g>
<!-- \\OpenResourceManager\\Client\\Building -->
<g id="node4" class="node">
<title>\\OpenResourceManager\\Client\\Building</title>
<polygon fill="none" stroke="black" points="272.5,-870 201.5,-870 201.5,-834 272.5,-834 272.5,-870"/>
<text text-anchor="middle" x="237" y="-849.2" font-family="Courier,monospace" font-size="11.00">Building</text>
</g>
<!-- \\OpenResourceManager\\Client\\Building&#45;&gt;\\OpenResourceManager\\Client\\Client -->
<g id="edge4" class="edge">
<title>\\OpenResourceManager\\Client\\Building&#45;&gt;\\OpenResourceManager\\Client\\Client</title>
<path fill="none" stroke="black" d="M201.18,-846.13C187.17,-842.22 171.8,-835.72 161,-825 92.5,-757.01 70.72,-637.87 64.16,-583.51"/>
<polygon fill="none" stroke="black" points="67.6,-582.78 63.01,-573.23 60.64,-583.56 67.6,-582.78"/>
</g>
<!-- \\OpenResourceManager\\Client\\Course -->
<g id="node5" class="node">
<title>\\OpenResourceManager\\Client\\Course</title>
<polygon fill="none" stroke="black" points="265.5,-816 208.5,-816 208.5,-780 265.5,-780 265.5,-816"/>
<text text-anchor="middle" x="237" y="-795.2" font-family="Courier,monospace" font-size="11.00">Course</text>
</g>
<!-- \\OpenResourceManager\\Client\\Course&#45;&gt;\\OpenResourceManager\\Client\\Client -->
<g id="edge5" class="edge">
<title>\\OpenResourceManager\\Client\\Course&#45;&gt;\\OpenResourceManager\\Client\\Client</title>
<path fill="none" stroke="black" d="M208.29,-793.48C192.8,-789.72 174.05,-782.97 161,-771 104.41,-719.08 77.52,-628.57 67.05,-582.97"/>
<polygon fill="none" stroke="black" points="70.47,-582.18 64.9,-573.16 63.63,-583.68 70.47,-582.18"/>
</g>
<!-- \\OpenResourceManager\\Client\\Duty -->
<g id="node6" class="node">
<title>\\OpenResourceManager\\Client\\Duty</title>
<polygon fill="none" stroke="black" points="264,-762 210,-762 210,-726 264,-726 264,-762"/>
<text text-anchor="middle" x="237" y="-741.2" font-family="Courier,monospace" font-size="11.00">Duty</text>
</g>
<!-- \\OpenResourceManager\\Client\\Duty&#45;&gt;\\OpenResourceManager\\Client\\Client -->
<g id="edge6" class="edge">
<title>\\OpenResourceManager\\Client\\Duty&#45;&gt;\\OpenResourceManager\\Client\\Client</title>
<path fill="none" stroke="black" d="M209.88,-739.16C194.37,-735.24 175.06,-728.44 161,-717 116.18,-680.55 86.13,-618.2 71.61,-582.42"/>
<polygon fill="none" stroke="black" points="74.85,-581.09 67.93,-573.07 68.34,-583.66 74.85,-581.09"/>
</g>
<!-- \\OpenResourceManager\\Client\\Campus -->
<g id="node7" class="node">
<title>\\OpenResourceManager\\Client\\Campus</title>
<polygon fill="none" stroke="black" points="265.5,-708 208.5,-708 208.5,-672 265.5,-672 265.5,-708"/>
<text text-anchor="middle" x="237" y="-687.2" font-family="Courier,monospace" font-size="11.00">Campus</text>
</g>
<!-- \\OpenResourceManager\\Client\\Campus&#45;&gt;\\OpenResourceManager\\Client\\Client -->
<g id="edge7" class="edge">
<title>\\OpenResourceManager\\Client\\Campus&#45;&gt;\\OpenResourceManager\\Client\\Client</title>
<path fill="none" stroke="black" d="M208.15,-683.44C193.34,-679.12 175.3,-672.49 161,-663 127.89,-641.03 98.22,-605.78 80.07,-581.56"/>
<polygon fill="none" stroke="black" points="82.66,-579.17 73.92,-573.18 77.01,-583.32 82.66,-579.17"/>
</g>
<!-- \\OpenResourceManager\\Client\\MobilePhone -->
<g id="node8" class="node">
<title>\\OpenResourceManager\\Client\\MobilePhone</title>
<polygon fill="none" stroke="black" points="282.5,-654 191.5,-654 191.5,-618 282.5,-618 282.5,-654"/>
<text text-anchor="middle" x="237" y="-633.2" font-family="Courier,monospace" font-size="11.00">MobilePhone</text>
</g>
<!-- \\OpenResourceManager\\Client\\MobilePhone&#45;&gt;\\OpenResourceManager\\Client\\Client -->
<g id="edge8" class="edge">
<title>\\OpenResourceManager\\Client\\MobilePhone&#45;&gt;\\OpenResourceManager\\Client\\Client</title>
<path fill="none" stroke="black" d="M191.14,-621.11C181.11,-617.43 170.6,-613.3 161,-609 139.58,-599.4 116.48,-587 97.94,-576.5"/>
<polygon fill="none" stroke="black" points="99.65,-573.45 89.23,-571.53 96.18,-579.53 99.65,-573.45"/>
</g>
<!-- \\OpenResourceManager\\Client\\LoadStatus -->
<g id="node9" class="node">
<title>\\OpenResourceManager\\Client\\LoadStatus</title>
<polygon fill="none" stroke="black" points="279,-600 195,-600 195,-564 279,-564 279,-600"/>
<text text-anchor="middle" x="237" y="-579.2" font-family="Courier,monospace" font-size="11.00">LoadStatus</text>
</g>
<!-- \\OpenResourceManager\\Client\\LoadStatus&#45;&gt;\\OpenResourceManager\\Client\\Client -->
<g id="edge9" class="edge">
<title>\\OpenResourceManager\\Client\\LoadStatus&#45;&gt;\\OpenResourceManager\\Client\\Client</title>
<path fill="none" stroke="black" d="M194.65,-575.6C165.78,-571.14 127.54,-565.22 99.46,-560.87"/>
<polygon fill="none" stroke="black" points="99.64,-557.36 89.23,-559.29 98.57,-564.28 99.64,-557.36"/>
</g>
<!-- \\OpenResourceManager\\Client\\AliasAccount -->
<g id="node10" class="node">
<title>\\OpenResourceManager\\Client\\AliasAccount</title>
<polygon fill="none" stroke="black" points="286,-546 188,-546 188,-510 286,-510 286,-546"/>
<text text-anchor="middle" x="237" y="-525.2" font-family="Courier,monospace" font-size="11.00">AliasAccount</text>
</g>
<!-- \\OpenResourceManager\\Client\\AliasAccount&#45;&gt;\\OpenResourceManager\\Client\\Client -->
<g id="edge10" class="edge">
<title>\\OpenResourceManager\\Client\\AliasAccount&#45;&gt;\\OpenResourceManager\\Client\\Client</title>
<path fill="none" stroke="black" d="M187.86,-535.45C159.93,-539.77 125.26,-545.14 99.3,-549.15"/>
<polygon fill="none" stroke="black" points="98.46,-545.74 89.11,-550.73 99.53,-552.66 98.46,-545.74"/>
</g>
<!-- \\OpenResourceManager\\Client\\School -->
<g id="node12" class="node">
<title>\\OpenResourceManager\\Client\\School</title>
<polygon fill="none" stroke="black" points="265.5,-492 208.5,-492 208.5,-456 265.5,-456 265.5,-492"/>
<text text-anchor="middle" x="237" y="-471.2" font-family="Courier,monospace" font-size="11.00">School</text>
</g>
<!-- \\OpenResourceManager\\Client\\School&#45;&gt;\\OpenResourceManager\\Client\\Client -->
<g id="edge11" class="edge">
<title>\\OpenResourceManager\\Client\\School&#45;&gt;\\OpenResourceManager\\Client\\Client</title>
<path fill="none" stroke="black" d="M208.17,-482.89C193.87,-487.74 176.28,-494.15 161,-501 139.58,-510.6 116.48,-523 97.94,-533.5"/>
<polygon fill="none" stroke="black" points="96.18,-530.47 89.23,-538.47 99.65,-536.55 96.18,-530.47"/>
</g>
<!-- \\OpenResourceManager\\Client\\Addresses -->
<g id="node13" class="node">
<title>\\OpenResourceManager\\Client\\Addresses</title>
<polygon fill="none" stroke="black" points="275.5,-438 198.5,-438 198.5,-402 275.5,-402 275.5,-438"/>
<text text-anchor="middle" x="237" y="-417.2" font-family="Courier,monospace" font-size="11.00">Addresses</text>
</g>
<!-- \\OpenResourceManager\\Client\\Addresses&#45;&gt;\\OpenResourceManager\\Client\\Client -->
<g id="edge12" class="edge">
<title>\\OpenResourceManager\\Client\\Addresses&#45;&gt;\\OpenResourceManager\\Client\\Client</title>
<path fill="none" stroke="black" d="M198.47,-429.59C185.94,-433.79 172.3,-439.5 161,-447 127.89,-468.97 98.22,-504.22 80.07,-528.44"/>
<polygon fill="none" stroke="black" points="77.01,-526.68 73.92,-536.82 82.66,-530.83 77.01,-526.68"/>
</g>
<!-- \\OpenResourceManager\\Client\\State -->
<g id="node14" class="node">
<title>\\OpenResourceManager\\Client\\State</title>
<polygon fill="none" stroke="black" points="264,-384 210,-384 210,-348 264,-348 264,-384"/>
<text text-anchor="middle" x="237" y="-363.2" font-family="Courier,monospace" font-size="11.00">State</text>
</g>
<!-- \\OpenResourceManager\\Client\\State&#45;&gt;\\OpenResourceManager\\Client\\Client -->
<g id="edge13" class="edge">
<title>\\OpenResourceManager\\Client\\State&#45;&gt;\\OpenResourceManager\\Client\\Client</title>
<path fill="none" stroke="black" d="M209.88,-370.84C194.37,-374.76 175.06,-381.56 161,-393 116.18,-429.45 86.13,-491.8 71.61,-527.58"/>
<polygon fill="none" stroke="black" points="68.34,-526.34 67.93,-536.93 74.85,-528.91 68.34,-526.34"/>
</g>
<!-- \\OpenResourceManager\\Client\\Country -->
<g id="node15" class="node">
<title>\\OpenResourceManager\\Client\\Country</title>
<polygon fill="none" stroke="black" points="269,-330 205,-330 205,-294 269,-294 269,-330"/>
<text text-anchor="middle" x="237" y="-309.2" font-family="Courier,monospace" font-size="11.00">Country</text>
</g>
<!-- \\OpenResourceManager\\Client\\Country&#45;&gt;\\OpenResourceManager\\Client\\Client -->
<g id="edge14" class="edge">
<title>\\OpenResourceManager\\Client\\Country&#45;&gt;\\OpenResourceManager\\Client\\Client</title>
<path fill="none" stroke="black" d="M204.98,-317.36C190.19,-321.25 173.14,-327.87 161,-339 104.41,-390.92 77.52,-481.43 67.05,-527.03"/>
<polygon fill="none" stroke="black" points="63.63,-526.32 64.9,-536.84 70.47,-527.82 63.63,-526.32"/>
</g>
<!-- \\OpenResourceManager\\Client\\Email -->
<g id="node16" class="node">
<title>\\OpenResourceManager\\Client\\Email</title>
<polygon fill="none" stroke="black" points="264,-276 210,-276 210,-240 264,-240 264,-276"/>
<text text-anchor="middle" x="237" y="-255.2" font-family="Courier,monospace" font-size="11.00">Email</text>
</g>
<!-- \\OpenResourceManager\\Client\\Email&#45;&gt;\\OpenResourceManager\\Client\\Client -->
<g id="edge15" class="edge">
<title>\\OpenResourceManager\\Client\\Email&#45;&gt;\\OpenResourceManager\\Client\\Client</title>
<path fill="none" stroke="black" d="M209.74,-261.73C193.8,-265.25 174.06,-272.03 161,-285 92.5,-352.99 70.72,-472.13 64.16,-526.49"/>
<polygon fill="none" stroke="black" points="60.64,-526.44 63.01,-536.77 67.6,-527.22 60.64,-526.44"/>
</g>
<!-- \\OpenResourceManager\\Client\\ResourceVerification -->
<g id="node17" class="node">
<title>\\OpenResourceManager\\Client\\ResourceVerification</title>
<polygon fill="none" stroke="black" points="313,-222 161,-222 161,-186 313,-186 313,-222"/>
<text text-anchor="middle" x="237" y="-201.2" font-family="Courier,monospace" font-size="11.00">ResourceVerification</text>
</g>
<!-- \\OpenResourceManager\\Client\\ResourceVerification&#45;&gt;\\OpenResourceManager\\Client\\Client -->
<g id="edge16" class="edge">
<title>\\OpenResourceManager\\Client\\ResourceVerification&#45;&gt;\\OpenResourceManager\\Client\\Client</title>
<path fill="none" stroke="black" d="M171.94,-222.02C167.95,-224.62 164.25,-227.59 161,-231 80.17,-315.77 64.88,-464.59 62.08,-526.62"/>
<polygon fill="none" stroke="black" points="58.58,-526.69 61.7,-536.82 65.57,-526.95 58.58,-526.69"/>
</g>
<!-- \\OpenResourceManager\\Client\\MobileCarrier -->
<g id="node18" class="node">
<title>\\OpenResourceManager\\Client\\MobileCarrier</title>
<polygon fill="none" stroke="black" points="289,-168 185,-168 185,-132 289,-132 289,-168"/>
<text text-anchor="middle" x="237" y="-147.2" font-family="Courier,monospace" font-size="11.00">MobileCarrier</text>
</g>
<!-- \\OpenResourceManager\\Client\\MobileCarrier&#45;&gt;\\OpenResourceManager\\Client\\Client -->
<g id="edge17" class="edge">
<title>\\OpenResourceManager\\Client\\MobileCarrier&#45;&gt;\\OpenResourceManager\\Client\\Client</title>
<path fill="none" stroke="black" d="M184.73,-160.9C175.87,-164.75 167.45,-169.96 161,-177 67.7,-278.91 59.87,-457.82 60.57,-526.79"/>
<polygon fill="none" stroke="black" points="57.08,-526.95 60.75,-536.88 64.07,-526.83 57.08,-526.95"/>
</g>
<!-- \\OpenResourceManager\\Client\\Department -->
<g id="node19" class="node">
<title>\\OpenResourceManager\\Client\\Department</title>
<polygon fill="none" stroke="black" points="279,-114 195,-114 195,-78 279,-78 279,-114"/>
<text text-anchor="middle" x="237" y="-93.2" font-family="Courier,monospace" font-size="11.00">Department</text>
</g>
<!-- \\OpenResourceManager\\Client\\Department&#45;&gt;\\OpenResourceManager\\Client\\Client -->
<g id="edge18" class="edge">
<title>\\OpenResourceManager\\Client\\Department&#45;&gt;\\OpenResourceManager\\Client\\Client</title>
<path fill="none" stroke="black" d="M194.67,-102.94C182.3,-106.91 169.73,-113.17 161,-123 106.81,-184.07 74.1,-440.66 64.48,-526.72"/>
<polygon fill="none" stroke="black" points="60.99,-526.48 63.38,-536.8 67.95,-527.24 60.99,-526.48"/>
</g>
<!-- \\OpenResourceManager\\ORM -->
<g id="node20" class="node">
<title>\\OpenResourceManager\\ORM</title>
<polygon fill="none" stroke="black" points="264,-60 210,-60 210,-24 264,-24 264,-60"/>
<text text-anchor="middle" x="237" y="-39.2" font-family="Courier,monospace" font-size="11.00">ORM</text>
</g>
</g>
</svg>
