<?xml version="1.0" encoding="UTF-8" standalone="no"?>
<!DOCTYPE svg PUBLIC "-//W3C//DTD SVG 1.1//EN"
 "http://www.w3.org/Graphics/SVG/1.1/DTD/svg11.dtd">
<!-- Generated by graphviz version 2.40.1 (20161225.0304)
 -->
<!-- Title: G Pages: 1 -->
<svg width="348pt" height="1129pt"
 viewBox="0.00 0.00 347.63 1129.00" xmlns="http://www.w3.org/2000/svg" xmlns:xlink="http://www.w3.org/1999/xlink">
<g id="graph0" class="graph" transform="scale(1 1) rotate(0) translate(4 1125)">
<title>G</title>
<polygon fill="#ffffff" stroke="transparent" points="-4,4 -4,-1125 343.6279,-1125 343.6279,4 -4,4"/>
<g id="clust1" class="cluster">
<title>cluster_Global</title>
<path fill="none" stroke="#c0c0c0" d="M20,-8C20,-8 319.6279,-8 319.6279,-8 325.6279,-8 331.6279,-14 331.6279,-20 331.6279,-20 331.6279,-1101 331.6279,-1101 331.6279,-1107 325.6279,-1113 319.6279,-1113 319.6279,-1113 20,-1113 20,-1113 14,-1113 8,-1107 8,-1101 8,-1101 8,-20 8,-20 8,-14 14,-8 20,-8"/>
<text text-anchor="middle" x="169.814" y="-1100.2" font-family="Times,serif" font-size="11.00" fill="#c0c0c0">Global</text>
</g>
<g id="clust2" class="cluster">
<title>cluster_\OpenResourceManager</title>
<path fill="none" stroke="#c0c0c0" d="M28,-16C28,-16 311.6279,-16 311.6279,-16 317.6279,-16 323.6279,-22 323.6279,-28 323.6279,-28 323.6279,-1074 323.6279,-1074 323.6279,-1080 317.6279,-1086 311.6279,-1086 311.6279,-1086 28,-1086 28,-1086 22,-1086 16,-1080 16,-1074 16,-1074 16,-28 16,-28 16,-22 22,-16 28,-16"/>
<text text-anchor="middle" x="169.814" y="-1073.2" font-family="Times,serif" font-size="11.00" fill="#c0c0c0">OpenResourceManager</text>
</g>
<g id="clust3" class="cluster">
<title>cluster_\OpenResourceManager\Client</title>
<path fill="none" stroke="#c0c0c0" d="M36,-70C36,-70 303.6279,-70 303.6279,-70 309.6279,-70 315.6279,-76 315.6279,-82 315.6279,-82 315.6279,-1047 315.6279,-1047 315.6279,-1053 309.6279,-1059 303.6279,-1059 303.6279,-1059 36,-1059 36,-1059 30,-1059 24,-1053 24,-1047 24,-1047 24,-82 24,-82 24,-76 30,-70 36,-70"/>
<text text-anchor="middle" x="169.814" y="-1046.2" font-family="Times,serif" font-size="11.00" fill="#c0c0c0">Client</text>
</g>
<!-- \\OpenResourceManager\\Client\\Account -->
<g id="node1" class="node">
<title>\\OpenResourceManager\\Client\\Account</title>
<polygon fill="none" stroke="#000000" points="264.8251,-1032 202.4093,-1032 202.4093,-996 264.8251,-996 264.8251,-1032"/>
<text text-anchor="middle" x="233.6172" y="-1010.7" font-family="Courier,monospace" font-size="11.00" fill="#000000">Account</text>
</g>
<!-- \\OpenResourceManager\\Client\\Client -->
<g id="node11" class="node">
<title>\\OpenResourceManager\\Client\\Client</title>
<polygon fill="none" stroke="#000000" points="87.4111,-573 32.1954,-573 32.1954,-537 87.4111,-537 87.4111,-573"/>
<text text-anchor="middle" x="59.8032" y="-551.7" font-family="Courier,monospace" font-size="11.00" fill="#000000">Client</text>
</g>
<!-- \\OpenResourceManager\\Client\\Account&#45;&gt;\\OpenResourceManager\\Client\\Client -->
<g id="edge1" class="edge">
<title>\\OpenResourceManager\\Client\\Account&#45;&gt;\\OpenResourceManager\\Client\\Client</title>
<path fill="none" stroke="#000000" d="M202.3521,-1009.6466C187.4199,-1005.9969 170.4783,-999.2958 159.6064,-987 105.5141,-925.8231 72.5289,-669.3024 62.8206,-583.2675"/>
<polygon fill="none" stroke="#000000" points="66.2843,-582.7457 61.7029,-573.1926 59.327,-583.5176 66.2843,-582.7457"/>
</g>
<!-- \\OpenResourceManager\\Client\\Room -->
<g id="node2" class="node">
<title>\\OpenResourceManager\\Client\\Room</title>
<polygon fill="none" stroke="#000000" points="260.6172,-978 206.6172,-978 206.6172,-942 260.6172,-942 260.6172,-978"/>
<text text-anchor="middle" x="233.6172" y="-956.7" font-family="Courier,monospace" font-size="11.00" fill="#000000">Room</text>
</g>
<!-- \\OpenResourceManager\\Client\\Room&#45;&gt;\\OpenResourceManager\\Client\\Client -->
<g id="edge2" class="edge">
<title>\\OpenResourceManager\\Client\\Room&#45;&gt;\\OpenResourceManager\\Client\\Client</title>
<path fill="none" stroke="#000000" d="M206.5498,-956.4422C190.7793,-952.9966 171.6822,-946.2367 159.6064,-933 111.8754,-880.6799 75.6425,-662.4755 63.8794,-583.6031"/>
<polygon fill="none" stroke="#000000" points="67.3012,-582.8146 62.3833,-573.4303 60.3757,-583.8332 67.3012,-582.8146"/>
</g>
<!-- \\OpenResourceManager\\Client\\ServiceAccount -->
<g id="node3" class="node">
<title>\\OpenResourceManager\\Client\\ServiceAccount</title>
<polygon fill="none" stroke="#000000" points="288.033,-924 179.2014,-924 179.2014,-888 288.033,-888 288.033,-924"/>
<text text-anchor="middle" x="233.6172" y="-902.7" font-family="Courier,monospace" font-size="11.00" fill="#000000">ServiceAccount</text>
</g>
<!-- \\OpenResourceManager\\Client\\ServiceAccount&#45;&gt;\\OpenResourceManager\\Client\\Client -->
<g id="edge3" class="edge">
<title>\\OpenResourceManager\\Client\\ServiceAccount&#45;&gt;\\OpenResourceManager\\Client\\Client</title>
<path fill="none" stroke="#000000" d="M179.0889,-892.8499C171.8585,-889.2814 165.071,-884.7506 159.6064,-879 118.053,-835.2715 79.0579,-653.8496 65.1645,-583.2695"/>
<polygon fill="none" stroke="#000000" points="68.5722,-582.4571 63.2264,-573.3098 61.701,-583.7942 68.5722,-582.4571"/>
</g>
<!-- \\OpenResourceManager\\Client\\Building -->
<g id="node4" class="node">
<title>\\OpenResourceManager\\Client\\Building</title>
<polygon fill="none" stroke="#000000" points="267.926,-870 199.3083,-870 199.3083,-834 267.926,-834 267.926,-870"/>
<text text-anchor="middle" x="233.6172" y="-848.7" font-family="Courier,monospace" font-size="11.00" fill="#000000">Building</text>
</g>
<!-- \\OpenResourceManager\\Client\\Building&#45;&gt;\\OpenResourceManager\\Client\\Client -->
<g id="edge4" class="edge">
<title>\\OpenResourceManager\\Client\\Building&#45;&gt;\\OpenResourceManager\\Client\\Client</title>
<path fill="none" stroke="#000000" d="M199.2603,-846.0298C185.4315,-842.0938 170.2676,-835.6159 159.6064,-825 91.1925,-756.8766 69.1981,-637.8077 62.5238,-583.4815"/>
<polygon fill="none" stroke="#000000" points="65.9633,-582.7518 61.3523,-573.213 59.0084,-583.5453 65.9633,-582.7518"/>
</g>
<!-- \\OpenResourceManager\\Client\\Course -->
<g id="node5" class="node">
<title>\\OpenResourceManager\\Client\\Course</title>
<polygon fill="none" stroke="#000000" points="261.225,-816 206.0094,-816 206.0094,-780 261.225,-780 261.225,-816"/>
<text text-anchor="middle" x="233.6172" y="-794.7" font-family="Courier,monospace" font-size="11.00" fill="#000000">Course</text>
</g>
<!-- \\OpenResourceManager\\Client\\Course&#45;&gt;\\OpenResourceManager\\Client\\Client -->
<g id="edge5" class="edge">
<title>\\OpenResourceManager\\Client\\Course&#45;&gt;\\OpenResourceManager\\Client\\Client</title>
<path fill="none" stroke="#000000" d="M205.9149,-793.302C190.7028,-789.4992 172.3883,-782.7624 159.6064,-771 103.0643,-718.9675 75.9982,-628.511 65.4249,-582.9394"/>
<polygon fill="none" stroke="#000000" points="68.8347,-582.1487 63.2482,-573.1464 62.0015,-583.6677 68.8347,-582.1487"/>
</g>
<!-- \\OpenResourceManager\\Client\\Duty -->
<g id="node6" class="node">
<title>\\OpenResourceManager\\Client\\Duty</title>
<polygon fill="none" stroke="#000000" points="260.6172,-762 206.6172,-762 206.6172,-726 260.6172,-726 260.6172,-762"/>
<text text-anchor="middle" x="233.6172" y="-740.7" font-family="Courier,monospace" font-size="11.00" fill="#000000">Duty</text>
</g>
<!-- \\OpenResourceManager\\Client\\Duty&#45;&gt;\\OpenResourceManager\\Client\\Client -->
<g id="edge6" class="edge">
<title>\\OpenResourceManager\\Client\\Duty&#45;&gt;\\OpenResourceManager\\Client\\Client</title>
<path fill="none" stroke="#000000" d="M206.4318,-738.7055C191.3867,-734.71 173.0668,-727.9793 159.6064,-717 114.7985,-680.4512 84.6055,-618.1439 69.9902,-582.3911"/>
<polygon fill="none" stroke="#000000" points="73.2261,-581.0563 66.2818,-573.0546 66.7205,-583.6404 73.2261,-581.0563"/>
</g>
<!-- \\OpenResourceManager\\Client\\Campus -->
<g id="node7" class="node">
<title>\\OpenResourceManager\\Client\\Campus</title>
<polygon fill="none" stroke="#000000" points="261.225,-708 206.0094,-708 206.0094,-672 261.225,-672 261.225,-708"/>
<text text-anchor="middle" x="233.6172" y="-686.7" font-family="Courier,monospace" font-size="11.00" fill="#000000">Campus</text>
</g>
<!-- \\OpenResourceManager\\Client\\Campus&#45;&gt;\\OpenResourceManager\\Client\\Client -->
<g id="edge7" class="edge">
<title>\\OpenResourceManager\\Client\\Campus&#45;&gt;\\OpenResourceManager\\Client\\Client</title>
<path fill="none" stroke="#000000" d="M205.7843,-683.2579C191.2431,-678.9193 173.6106,-672.3222 159.6064,-663 126.3379,-640.8539 96.4373,-605.4082 78.2258,-581.2092"/>
<polygon fill="none" stroke="#000000" points="81.0392,-579.1271 72.2853,-573.159 75.4068,-583.2835 81.0392,-579.1271"/>
</g>
<!-- \\OpenResourceManager\\Client\\MobilePhone -->
<g id="node8" class="node">
<title>\\OpenResourceManager\\Client\\MobilePhone</title>
<polygon fill="none" stroke="#000000" points="277.7299,-654 189.5045,-654 189.5045,-618 277.7299,-618 277.7299,-654"/>
<text text-anchor="middle" x="233.6172" y="-632.7" font-family="Courier,monospace" font-size="11.00" fill="#000000">MobilePhone</text>
</g>
<!-- \\OpenResourceManager\\Client\\MobilePhone&#45;&gt;\\OpenResourceManager\\Client\\Client -->
<g id="edge8" class="edge">
<title>\\OpenResourceManager\\Client\\MobilePhone&#45;&gt;\\OpenResourceManager\\Client\\Client</title>
<path fill="none" stroke="#000000" d="M189.3613,-621.0531C179.4594,-617.3786 169.0856,-613.2659 159.6064,-609 138.1465,-599.3423 114.9836,-586.9401 96.3794,-576.4574"/>
<polygon fill="none" stroke="#000000" points="98.0627,-573.3883 87.64,-571.4859 94.6015,-579.4727 98.0627,-573.3883"/>
</g>
<!-- \\OpenResourceManager\\Client\\LoadStatus -->
<g id="node9" class="node">
<title>\\OpenResourceManager\\Client\\LoadStatus</title>
<polygon fill="none" stroke="#000000" points="274.6279,-600 192.6064,-600 192.6064,-564 274.6279,-564 274.6279,-600"/>
<text text-anchor="middle" x="233.6172" y="-578.7" font-family="Courier,monospace" font-size="11.00" fill="#000000">LoadStatus</text>
</g>
<!-- \\OpenResourceManager\\Client\\LoadStatus&#45;&gt;\\OpenResourceManager\\Client\\Client -->
<g id="edge9" class="edge">
<title>\\OpenResourceManager\\Client\\LoadStatus&#45;&gt;\\OpenResourceManager\\Client\\Client</title>
<path fill="none" stroke="#000000" d="M192.4257,-575.6014C163.6733,-571.135 125.5882,-565.2189 97.609,-560.8727"/>
<polygon fill="none" stroke="#000000" points="97.8398,-557.3667 87.4211,-559.2901 96.7653,-564.2837 97.8398,-557.3667"/>
</g>
<!-- \\OpenResourceManager\\Client\\AliasAccount -->
<g id="node10" class="node">
<title>\\OpenResourceManager\\Client\\AliasAccount</title>
<polygon fill="none" stroke="#000000" points="281.3303,-546 185.9041,-546 185.9041,-510 281.3303,-510 281.3303,-546"/>
<text text-anchor="middle" x="233.6172" y="-524.7" font-family="Courier,monospace" font-size="11.00" fill="#000000">AliasAccount</text>
</g>
<!-- \\OpenResourceManager\\Client\\AliasAccount&#45;&gt;\\OpenResourceManager\\Client\\Client -->
<g id="edge10" class="edge">
<title>\\OpenResourceManager\\Client\\AliasAccount&#45;&gt;\\OpenResourceManager\\Client\\Client</title>
<path fill="none" stroke="#000000" d="M185.6616,-535.4493C157.9304,-539.7571 123.5276,-545.1012 97.7024,-549.1128"/>
<polygon fill="none" stroke="#000000" points="96.9005,-545.6953 87.5563,-550.6889 97.9751,-552.6123 96.9005,-545.6953"/>
</g>
<!-- \\OpenResourceManager\\Client\\School -->
<g id="node12" class="node">
<title>\\OpenResourceManager\\Client\\School</title>
<polygon fill="none" stroke="#000000" points="261.225,-492 206.0094,-492 206.0094,-456 261.225,-456 261.225,-492"/>
<text text-anchor="middle" x="233.6172" y="-470.7" font-family="Courier,monospace" font-size="11.00" fill="#000000">School</text>
</g>
<!-- \\OpenResourceManager\\Client\\School&#45;&gt;\\OpenResourceManager\\Client\\Client -->
<g id="edge11" class="edge">
<title>\\OpenResourceManager\\Client\\School&#45;&gt;\\OpenResourceManager\\Client\\Client</title>
<path fill="none" stroke="#000000" d="M205.8194,-483.061C191.7711,-487.9107 174.5735,-494.2643 159.6064,-501 138.1465,-510.6577 114.9836,-523.0599 96.3794,-533.5426"/>
<polygon fill="none" stroke="#000000" points="94.6015,-530.5273 87.64,-538.5141 98.0627,-536.6117 94.6015,-530.5273"/>
</g>
<!-- \\OpenResourceManager\\Client\\Addresses -->
<g id="node13" class="node">
<title>\\OpenResourceManager\\Client\\Addresses</title>
<polygon fill="none" stroke="#000000" points="271.528,-438 195.7064,-438 195.7064,-402 271.528,-402 271.528,-438"/>
<text text-anchor="middle" x="233.6172" y="-416.7" font-family="Courier,monospace" font-size="11.00" fill="#000000">Addresses</text>
</g>
<!-- \\OpenResourceManager\\Client\\Addresses&#45;&gt;\\OpenResourceManager\\Client\\Client -->
<g id="edge12" class="edge">
<title>\\OpenResourceManager\\Client\\Addresses&#45;&gt;\\OpenResourceManager\\Client\\Client</title>
<path fill="none" stroke="#000000" d="M195.8326,-429.9306C183.6768,-434.1083 170.5365,-439.7241 159.6064,-447 126.3379,-469.1461 96.4373,-504.5918 78.2258,-528.7908"/>
<polygon fill="none" stroke="#000000" points="75.4068,-526.7165 72.2853,-536.841 81.0392,-530.8729 75.4068,-526.7165"/>
</g>
<!-- \\OpenResourceManager\\Client\\State -->
<g id="node14" class="node">
<title>\\OpenResourceManager\\Client\\State</title>
<polygon fill="none" stroke="#000000" points="260.6172,-384 206.6172,-384 206.6172,-348 260.6172,-348 260.6172,-384"/>
<text text-anchor="middle" x="233.6172" y="-362.7" font-family="Courier,monospace" font-size="11.00" fill="#000000">State</text>
</g>
<!-- \\OpenResourceManager\\Client\\State&#45;&gt;\\OpenResourceManager\\Client\\Client -->
<g id="edge13" class="edge">
<title>\\OpenResourceManager\\Client\\State&#45;&gt;\\OpenResourceManager\\Client\\Client</title>
<path fill="none" stroke="#000000" d="M206.4318,-371.2945C191.3867,-375.29 173.0668,-382.0207 159.6064,-393 114.7985,-429.5488 84.6055,-491.8561 69.9902,-527.6089"/>
<polygon fill="none" stroke="#000000" points="66.7205,-526.3596 66.2818,-536.9454 73.2261,-528.9437 66.7205,-526.3596"/>
</g>
<!-- \\OpenResourceManager\\Client\\Country -->
<g id="node15" class="node">
<title>\\OpenResourceManager\\Client\\Country</title>
<polygon fill="none" stroke="#000000" points="264.8251,-330 202.4093,-330 202.4093,-294 264.8251,-294 264.8251,-330"/>
<text text-anchor="middle" x="233.6172" y="-308.7" font-family="Courier,monospace" font-size="11.00" fill="#000000">Country</text>
</g>
<!-- \\OpenResourceManager\\Client\\Country&#45;&gt;\\OpenResourceManager\\Client\\Client -->
<g id="edge14" class="edge">
<title>\\OpenResourceManager\\Client\\Country&#45;&gt;\\OpenResourceManager\\Client\\Client</title>
<path fill="none" stroke="#000000" d="M202.268,-317.6519C187.8529,-321.5929 171.3818,-328.1638 159.6064,-339 103.0643,-391.0325 75.9982,-481.489 65.4249,-527.0606"/>
<polygon fill="none" stroke="#000000" points="62.0015,-526.3323 63.2482,-536.8536 68.8347,-527.8513 62.0015,-526.3323"/>
</g>
<!-- \\OpenResourceManager\\Client\\Email -->
<g id="node16" class="node">
<title>\\OpenResourceManager\\Client\\Email</title>
<polygon fill="none" stroke="#000000" points="260.6172,-276 206.6172,-276 206.6172,-240 260.6172,-240 260.6172,-276"/>
<text text-anchor="middle" x="233.6172" y="-254.7" font-family="Courier,monospace" font-size="11.00" fill="#000000">Email</text>
</g>
<!-- \\OpenResourceManager\\Client\\Email&#45;&gt;\\OpenResourceManager\\Client\\Client -->
<g id="edge15" class="edge">
<title>\\OpenResourceManager\\Client\\Email&#45;&gt;\\OpenResourceManager\\Client\\Client</title>
<path fill="none" stroke="#000000" d="M206.2765,-262.15C190.8043,-265.7919 172.1091,-272.5505 159.6064,-285 91.1925,-353.1234 69.1981,-472.1923 62.5238,-526.5185"/>
<polygon fill="none" stroke="#000000" points="59.0084,-526.4547 61.3523,-536.787 65.9633,-527.2482 59.0084,-526.4547"/>
</g>
<!-- \\OpenResourceManager\\Client\\ResourceVerification -->
<g id="node17" class="node">
<title>\\OpenResourceManager\\Client\\ResourceVerification</title>
<polygon fill="none" stroke="#000000" points="307.6387,-222 159.5957,-222 159.5957,-186 307.6387,-186 307.6387,-222"/>
<text text-anchor="middle" x="233.6172" y="-200.7" font-family="Courier,monospace" font-size="11.00" fill="#000000">ResourceVerification</text>
</g>
<!-- \\OpenResourceManager\\Client\\ResourceVerification&#45;&gt;\\OpenResourceManager\\Client\\Client -->
<g id="edge16" class="edge">
<title>\\OpenResourceManager\\Client\\ResourceVerification&#45;&gt;\\OpenResourceManager\\Client\\Client</title>
<path fill="none" stroke="#000000" d="M170.4031,-222.0925C166.4678,-224.6771 162.8098,-227.629 159.6064,-231 118.053,-274.7285 79.0579,-456.1504 65.1645,-526.7305"/>
<polygon fill="none" stroke="#000000" points="61.701,-526.2058 63.2264,-536.6902 68.5722,-527.5429 61.701,-526.2058"/>
</g>
<!-- \\OpenResourceManager\\Client\\MobileCarrier -->
<g id="node18" class="node">
<title>\\OpenResourceManager\\Client\\MobileCarrier</title>
<polygon fill="none" stroke="#000000" points="284.4313,-168 182.8031,-168 182.8031,-132 284.4313,-132 284.4313,-168"/>
<text text-anchor="middle" x="233.6172" y="-146.7" font-family="Courier,monospace" font-size="11.00" fill="#000000">MobileCarrier</text>
</g>
<!-- \\OpenResourceManager\\Client\\MobileCarrier&#45;&gt;\\OpenResourceManager\\Client\\Client -->
<g id="edge17" class="edge">
<title>\\OpenResourceManager\\Client\\MobileCarrier&#45;&gt;\\OpenResourceManager\\Client\\Client</title>
<path fill="none" stroke="#000000" d="M182.6398,-161.1803C174.035,-165.0032 165.8748,-170.129 159.6064,-177 111.8754,-229.3201 75.6425,-447.5245 63.8794,-526.3969"/>
<polygon fill="none" stroke="#000000" points="60.3757,-526.1668 62.3833,-536.5697 67.3012,-527.1854 60.3757,-526.1668"/>
</g>
<!-- \\OpenResourceManager\\Client\\Department -->
<g id="node19" class="node">
<title>\\OpenResourceManager\\Client\\Department</title>
<polygon fill="none" stroke="#000000" points="274.6279,-114 192.6064,-114 192.6064,-78 274.6279,-78 274.6279,-114"/>
<text text-anchor="middle" x="233.6172" y="-92.7" font-family="Courier,monospace" font-size="11.00" fill="#000000">Department</text>
</g>
<!-- \\OpenResourceManager\\Client\\Department&#45;&gt;\\OpenResourceManager\\Client\\Client -->
<g id="edge18" class="edge">
<title>\\OpenResourceManager\\Client\\Department&#45;&gt;\\OpenResourceManager\\Client\\Client</title>
<path fill="none" stroke="#000000" d="M192.4454,-103.1813C180.3635,-107.1696 168.1227,-113.3683 159.6064,-123 105.5141,-184.1769 72.5289,-440.6976 62.8206,-526.7325"/>
<polygon fill="none" stroke="#000000" points="59.327,-526.4824 61.7029,-536.8074 66.2843,-527.2543 59.327,-526.4824"/>
</g>
<!-- \\OpenResourceManager\\ORM -->
<g id="node20" class="node">
<title>\\OpenResourceManager\\ORM</title>
<polygon fill="none" stroke="#000000" points="260.6172,-60 206.6172,-60 206.6172,-24 260.6172,-24 260.6172,-60"/>
<text text-anchor="middle" x="233.6172" y="-38.7" font-family="Courier,monospace" font-size="11.00" fill="#000000">ORM</text>
</g>
</g>
</svg>
